<svg width="375" height="141" viewBox="0 0 375 141" fill="none" xmlns="http://www.w3.org/2000/svg">
<g clip-path="url(#clip0_1283_7472)">
<rect width="375" height="141" fill="white"/>
<path d="M74.5733 19.9741C85.2913 19.9741 95.1951 25.6921 100.554 34.9741L124.201 75.9324C129.56 85.2145 129.56 96.6504 124.201 105.932L100.554 146.891C95.1951 156.173 85.2913 161.891 74.5733 161.891L27.2788 161.891C16.5608 161.891 6.65698 156.173 1.298 146.891L-22.3493 105.932C-27.7083 96.6504 -27.7083 85.2145 -22.3493 75.9325L1.298 34.9741C6.65698 25.6921 16.5608 19.9741 27.2788 19.9741L74.5733 19.9741Z" fill="#501A60"/>
<path d="M209.598 -61.5318C220.138 -61.5318 229.877 -55.9091 235.146 -46.7818L258.794 -5.82435C264.063 3.30292 264.063 14.5484 258.794 23.6757L235.146 64.6343C229.876 73.7616 220.138 79.3844 209.598 79.3844L162.304 79.3847C151.765 79.3846 142.026 73.7619 136.756 64.6347L113.109 23.6764C107.84 14.5491 107.84 3.30364 113.109 -5.82367L136.757 -46.7823C142.026 -55.9095 151.765 -61.5324 162.305 -61.5324L209.598 -61.5318Z" fill="white" stroke="#E67BE6"/>
<path d="M211.722 94.9102C222.44 94.9102 232.344 100.628 237.703 109.91L261.35 150.868C266.709 160.151 266.709 171.586 261.35 180.868L237.703 221.827C232.344 231.109 222.44 236.827 211.722 236.827L164.427 236.827C153.709 236.827 143.805 231.109 138.446 221.827L114.799 180.868C109.44 171.586 109.44 160.151 114.799 150.868L138.446 109.91C143.805 100.628 153.709 94.9102 164.427 94.9102L211.722 94.9102Z" fill="#E67BE6"/>
<path d="M346.749 16.439C357.467 16.439 367.371 22.157 372.73 31.439L396.377 72.3973C401.736 81.6793 401.736 93.1153 396.377 102.397L372.73 143.356C367.371 152.638 357.467 158.356 346.749 158.356L299.455 158.356C288.737 158.356 278.833 152.638 273.474 143.356L249.826 102.397C244.468 93.1153 244.468 81.6793 249.826 72.3973L273.474 31.439C278.833 22.157 288.737 16.439 299.455 16.439L346.749 16.439Z" fill="#501A60"/>
</g>
<defs>
<clipPath id="clip0_1283_7472">
<rect width="375" height="141" fill="white"/>
</clipPath>
</defs>
</svg>
