<svg width="640" height="141" viewBox="0 0 640 141" fill="none" xmlns="http://www.w3.org/2000/svg">
<g clip-path="url(#clip0_1344_7430)">
<rect width="375" height="141" fill="white"/>
<path d="M154.981 -11.9786C172.845 -11.9786 189.351 -2.44864 198.283 13.0214L228.055 64.5889C236.987 80.059 236.987 99.1189 228.055 114.589L198.283 166.156C189.351 181.627 172.845 191.157 154.981 191.157L95.4362 191.157C77.573 191.157 61.0666 181.627 52.1349 166.157L22.3624 114.589C13.4308 99.1189 13.4308 80.059 22.3624 64.589L52.1349 13.0214C61.0666 -2.44863 77.5729 -11.9786 95.4362 -11.9786L154.981 -11.9786Z" fill="#501A60"/>
<path d="M348.253 -128.86C365.937 -128.86 382.279 -119.425 391.121 -104.11L420.893 -52.5421C429.736 -37.2268 429.736 -18.3575 420.893 -3.04218L391.121 48.5252C382.279 63.8405 365.937 73.2751 348.253 73.2751L288.708 73.2752C271.023 73.2752 254.682 63.8405 245.84 48.5252L216.067 -3.04223C207.225 -18.3576 207.225 -37.2268 216.067 -52.5422L245.84 -104.11C254.682 -119.425 271.023 -128.859 288.708 -128.859L348.253 -128.86Z" fill="white" stroke="#E67BE6"/>
<path d="M351.294 95.2821C369.157 95.2821 385.663 104.812 394.595 120.282L424.368 171.85C433.299 187.32 433.299 206.38 424.368 221.85L394.595 273.417C385.663 288.887 369.157 298.417 351.294 298.417L291.749 298.417C273.885 298.417 257.379 288.887 248.447 273.417L218.675 221.85C209.743 206.38 209.743 187.32 218.675 171.85L248.447 120.282C257.379 104.812 273.885 95.2821 291.749 95.2821L351.294 95.2821Z" fill="#E67BE6"/>
<path d="M544.567 -17.0387C562.43 -17.0387 578.937 -7.5087 587.869 7.96135L617.641 59.5289C626.573 74.9989 626.573 94.0589 617.641 109.529L587.869 161.096C578.937 176.566 562.431 186.096 544.567 186.096L485.022 186.096C467.159 186.096 450.653 176.567 441.721 161.096L411.948 109.529C403.017 94.0589 403.017 74.9989 411.948 59.5289L441.721 7.96136C450.653 -7.50869 467.159 -17.0387 485.022 -17.0387L544.567 -17.0387Z" fill="#501A60"/>
</g>
<defs>
<clipPath id="clip0_1344_7430">
<rect width="640" height="141" fill="white"/>
</clipPath>
</defs>
</svg>
