<svg width="29" height="32" viewBox="0 0 29 32" fill="none" xmlns="http://www.w3.org/2000/svg">
<path d="M8.46582 0C8.64991 0 8.7998 0.14989 8.7998 0.333984V2.06738C8.7998 2.07363 8.7982 2.07977 8.79785 2.08594L8.79785 17.2607C8.82817 17.2465 8.85825 17.2318 8.88867 17.2178C10.6357 16.4137 12.5084 16 14.3994 16C16.2904 16 18.1631 16.4137 19.9102 17.2178C21.6572 18.0218 23.2449 19.2008 24.582 20.6865C25.9191 22.1721 26.9795 23.9359 27.7031 25.877C28.2943 27.4627 28.6509 29.1417 28.7617 30.8486C28.8029 31.4835 28.2837 32 27.6475 32C27.6255 32 27.6037 31.9973 27.582 31.9961C27.5633 31.997 27.5443 32 27.5254 32H14.7256C14.6933 32 14.6615 31.9966 14.6299 31.9941C14.3852 31.9984 14.1366 31.9305 13.9209 31.7793C13.3783 31.3989 13.2467 30.6501 13.627 30.1074L18.3398 23.3828C18.7202 22.8401 19.469 22.7085 20.0117 23.0889C20.5544 23.4692 20.686 24.2181 20.3057 24.7607L16.9141 29.5996L26.2988 29.5996C26.1456 28.6619 25.905 27.7422 25.5752 26.8574C24.9674 25.227 24.0762 23.745 22.9531 22.4971C21.8299 21.2491 20.4959 20.2584 19.0283 19.583C17.5608 18.9077 15.9878 18.5605 14.3994 18.5605C12.811 18.5606 11.238 18.9076 9.77051 19.583C9.43904 19.7356 9.11476 19.9049 8.79785 20.0889L8.79785 31.667C8.79774 31.8509 8.64871 31.9998 8.46484 32H1.29687C1.27357 32 1.25052 31.9974 1.22754 31.9961C1.2024 31.9977 1.17693 32 1.15137 32C0.515236 31.9999 -0.00410521 31.4835 0.0371094 30.8486C0.147965 29.1417 0.504566 27.4627 1.0957 25.877C1.81933 23.936 2.87979 22.1721 4.2168 20.6865C4.88496 19.9441 5.61563 19.2779 6.39746 18.6973L6.39746 2.40039L2.39941 2.40039L2.39941 18.2334C2.39941 18.3253 2.32522 18.4001 2.2334 18.4004H0.166016C0.074078 18.4003 0 18.3254 0 18.2334L0 0.166992C0 0.0750243 0.0740779 0.000128777 0.166016 0L8.46582 0ZM6.39746 21.9229C6.2089 22.1077 6.02496 22.299 5.84668 22.4971C4.72349 23.7451 3.83248 25.2268 3.22461 26.8574C2.89478 27.7422 2.65423 28.6618 2.50098 29.5996H6.39746L6.39746 21.9229Z" fill="#E67BE6"/>
</svg>
