<svg width="22" height="22" viewBox="0 0 22 22" fill="none" xmlns="http://www.w3.org/2000/svg">
<path d="M10.8141 5.7809C9.83406 5.7809 8.87605 6.07151 8.0612 6.61598C7.24634 7.16045 6.61124 7.93432 6.23621 8.83974C5.86117 9.74516 5.76304 10.7415 5.95423 11.7026C6.14543 12.6638 6.61735 13.5467 7.31033 14.2397C8.0033 14.9327 8.88621 15.4046 9.8474 15.5958C10.8086 15.787 11.8049 15.6889 12.7103 15.3138C13.6157 14.9388 14.3896 14.3037 14.9341 13.4888C15.4785 12.674 15.7691 11.716 15.7691 10.736C15.7678 9.42221 15.2453 8.16267 14.3163 7.23371C13.3874 6.30475 12.1278 5.78227 10.8141 5.7809ZM10.8141 14.0393C10.1607 14.0393 9.52206 13.8456 8.97883 13.4826C8.43559 13.1196 8.01219 12.6037 7.76216 12.0001C7.51214 11.3965 7.44672 10.7323 7.57418 10.0915C7.70164 9.45071 8.01626 8.8621 8.47824 8.40012C8.94023 7.93813 9.52883 7.62352 10.1696 7.49606C10.8104 7.3686 11.4746 7.43401 12.0782 7.68404C12.6818 7.93406 13.1978 8.35746 13.5607 8.9007C13.9237 9.44394 14.1175 10.0826 14.1175 10.736C14.1175 11.6121 13.7694 12.4523 13.1499 13.0718C12.5304 13.6913 11.6902 14.0393 10.8141 14.0393ZM15.7691 0L5.85902 0C4.32634 0.00163953 2.8569 0.611223 1.77312 1.695C0.689348 2.77877 0.0797645 4.24821 0.078125 5.7809L0.078125 15.691C0.0797645 17.2237 0.689348 18.6931 1.77312 19.7769C2.8569 20.8607 4.32634 21.4703 5.85902 21.4719H15.7691C17.3018 21.4703 18.7713 20.8607 19.855 19.7769C20.9388 18.6931 21.5484 17.2237 21.55 15.691V5.7809C21.5484 4.24821 20.9388 2.77877 19.855 1.695C18.7713 0.611223 17.3018 0.00163953 15.7691 0ZM19.8983 15.691C19.8983 16.7861 19.4633 17.8364 18.6889 18.6108C17.9146 19.3852 16.8643 19.8202 15.7691 19.8202H5.85902C4.76389 19.8202 3.71361 19.3852 2.93923 18.6108C2.16485 17.8364 1.72981 16.7861 1.72981 15.691V5.7809C1.72981 4.68576 2.16485 3.63548 2.93923 2.8611C3.71361 2.08673 4.76389 1.65169 5.85902 1.65169L15.7691 1.65169C16.8643 1.65169 17.9146 2.08673 18.6889 2.8611C19.4633 3.63548 19.8983 4.68576 19.8983 5.7809V15.691ZM17.4208 5.36798C17.4208 5.61298 17.3482 5.85248 17.2121 6.0562C17.0759 6.25991 16.8825 6.41869 16.6561 6.51245C16.4298 6.60621 16.1807 6.63074 15.9404 6.58294C15.7001 6.53514 15.4794 6.41716 15.3061 6.24392C15.1329 6.07067 15.0149 5.84995 14.9671 5.60965C14.9193 5.36935 14.9438 5.12028 15.0376 4.89392C15.1313 4.66757 15.2901 4.4741 15.4938 4.33798C15.6976 4.20187 15.9371 4.12921 16.1821 4.12921C16.5106 4.12921 16.8257 4.25973 17.058 4.49204C17.2903 4.72435 17.4208 5.03944 17.4208 5.36798Z" fill="black" fill-opacity="0.3"/>
</svg>
