<svg width="21" height="20" viewBox="0 0 21 20" fill="none" xmlns="http://www.w3.org/2000/svg">
<path d="M20.7158 0.212549C20.6027 0.108583 20.465 0.0394384 20.3176 0.0125651C20.1703 -0.0143081 20.0188 0.00210833 19.8796 0.0600458L1.37847 7.76388C1.11627 7.87236 0.894281 8.06855 0.745933 8.32289C0.597585 8.57723 0.530904 8.87596 0.555929 9.17411C0.580953 9.47226 0.696329 9.7537 0.884686 9.97604C1.07304 10.1984 1.32419 10.3496 1.60031 10.4069L6.39402 11.4084V17.0957C6.39308 17.4055 6.4796 17.7084 6.64237 17.9653C6.80515 18.2221 7.03667 18.421 7.30694 18.5362C7.57679 18.6535 7.87355 18.6816 8.15864 18.617C8.44372 18.5524 8.70394 18.398 8.90545 18.1739L11.217 15.6231L14.8841 19.0384C15.1487 19.2881 15.4899 19.4263 15.8436 19.427C15.9986 19.4268 16.1526 19.4009 16.3001 19.3502C16.541 19.2689 16.7577 19.1218 16.9287 18.9236C17.0996 18.7254 17.2187 18.483 17.2741 18.2205L20.9797 1.06831C21.0128 0.913625 21.0058 0.752255 20.9593 0.6015C20.9128 0.450745 20.8287 0.316291 20.7158 0.212549ZM15.1343 3.70943L6.95547 9.94166L2.42741 8.99653L15.1343 3.70943ZM7.85469 17.0957V12.4837L10.1178 14.5954L7.85469 17.0957ZM15.8454 17.8728L8.29745 10.8305L19.1611 2.54575L15.8454 17.8728Z" fill="black" fill-opacity="0.3"/>
</svg>
