<svg width="23" height="22" viewBox="0 0 23 22" fill="none" xmlns="http://www.w3.org/2000/svg">
<path d="M20.4257 0L2.25715 0C1.8191 0 1.39899 0.174016 1.08924 0.483767C0.779485 0.793518 0.605469 1.21363 0.605469 1.65169L0.605469 19.8202C0.605469 20.2583 0.779485 20.6784 1.08924 20.9881C1.39899 21.2979 1.8191 21.4719 2.25715 21.4719H20.4257C20.8637 21.4719 21.2839 21.2979 21.5936 20.9881C21.9034 20.6784 22.0774 20.2583 22.0774 19.8202V1.65169C22.0774 1.21363 21.9034 0.793518 21.5936 0.483767C21.2839 0.174016 20.8637 0 20.4257 0ZM20.4257 18.8202C20.4257 19.3725 19.978 19.8202 19.4257 19.8202H3.25715C2.70487 19.8202 2.25715 19.3725 2.25715 18.8202V2.65169C2.25715 2.0994 2.70487 1.65169 3.25715 1.65169L19.4257 1.65169C19.978 1.65169 20.4257 2.0994 20.4257 2.65169V18.8202ZM8.03805 9.08427V15.691C8.03805 15.91 7.95105 16.1201 7.79617 16.275C7.64129 16.4298 7.43124 16.5169 7.21221 16.5169C6.99318 16.5169 6.78313 16.4298 6.62825 16.275C6.47338 16.1201 6.38637 15.91 6.38637 15.691V9.08427C6.38637 8.86524 6.47338 8.65519 6.62825 8.50031C6.78313 8.34544 6.99318 8.25843 7.21221 8.25843C7.43124 8.25843 7.64129 8.34544 7.79617 8.50031C7.95105 8.65519 8.03805 8.86524 8.03805 9.08427ZM17.1223 11.9747V15.691C17.1223 15.91 17.0353 16.1201 16.8804 16.275C16.7256 16.4298 16.5155 16.5169 16.2965 16.5169C16.0775 16.5169 15.8674 16.4298 15.7125 16.275C15.5576 16.1201 15.4706 15.91 15.4706 15.691V11.9747C15.4706 11.4272 15.2531 10.902 14.8659 10.5148C14.4787 10.1276 13.9536 9.91011 13.406 9.91011C12.8585 9.91011 12.3333 10.1276 11.9461 10.5148C11.5589 10.902 11.3414 11.4272 11.3414 11.9747V15.691C11.3414 15.91 11.2544 16.1201 11.0995 16.275C10.9447 16.4298 10.7346 16.5169 10.5156 16.5169C10.2966 16.5169 10.0865 16.4298 9.93162 16.275C9.77675 16.1201 9.68974 15.91 9.68974 15.691V9.08427C9.69076 8.88199 9.766 8.68711 9.90117 8.53662C10.0363 8.38612 10.222 8.29047 10.4231 8.26781C10.6241 8.24515 10.8264 8.29705 10.9917 8.41368C11.2281 8.58051 11.5789 8.7269 11.8414 8.60507C12.2682 8.40698 12.7304 8.29095 13.2038 8.26516C13.8779 8.22843 14.5493 8.37601 15.1458 8.69206C15.7424 9.0081 16.2416 9.48067 16.5898 10.059C16.938 10.6374 17.1221 11.2996 17.1223 11.9747ZM8.45097 6.19382C8.45097 6.43882 8.37832 6.67833 8.24221 6.88204C8.10609 7.08575 7.91262 7.24453 7.68626 7.33829C7.45991 7.43205 7.21084 7.45658 6.97054 7.40878C6.73024 7.36098 6.50952 7.243 6.33627 7.06976C6.16303 6.89651 6.04505 6.67579 5.99725 6.43549C5.94945 6.19519 5.97398 5.94612 6.06774 5.71977C6.1615 5.49341 6.32028 5.29994 6.52399 5.16383C6.7277 5.02771 6.96721 4.95506 7.21221 4.95506C7.54075 4.95506 7.85584 5.08557 8.08815 5.31788C8.32046 5.5502 8.45097 5.86528 8.45097 6.19382Z" fill="black" fill-opacity="0.3"/>
</svg>
