<svg width="22" height="19" viewBox="0 0 22 19" fill="none" xmlns="http://www.w3.org/2000/svg">
<path d="M21.5461 2.86419C21.4873 2.71953 21.3876 2.59587 21.2597 2.50886C21.1318 2.42184 20.9814 2.37538 20.8276 2.37535H17.869C17.4554 1.65908 16.8667 1.06394 16.1602 0.647776C15.4536 0.231613 14.6534 0.00859379 13.8371 0.000399298C13.229 -0.00771929 12.6254 0.108038 12.0618 0.340859C11.4983 0.573681 10.9862 0.918864 10.5557 1.3561C10.1126 1.79866 9.76097 2.32691 9.52137 2.9098C9.28177 3.49269 9.15909 4.11845 9.16055 4.7503V5.35294C5.24625 4.30203 2.04462 1.06121 2.01059 1.02658C1.90624 0.919427 1.77398 0.844858 1.62938 0.81165C1.48479 0.778442 1.33388 0.787978 1.19444 0.839135C1.05499 0.890292 0.932808 0.98094 0.842281 1.1004C0.751754 1.21987 0.696651 1.36317 0.683461 1.51344C0.26442 6.24256 1.61391 9.40718 2.82242 11.229C3.41168 12.1296 4.12853 12.9365 4.94971 13.6237C3.46897 15.3584 1.1375 16.2698 1.11223 16.2797C1.00247 16.3215 0.903426 16.3881 0.82249 16.4743C0.741553 16.5606 0.680819 16.6644 0.644825 16.7779C0.60883 16.8914 0.598507 17.0118 0.614625 17.1299C0.630744 17.2481 0.672887 17.361 0.737907 17.4602C0.810826 17.5711 1.1025 17.96 1.81517 18.3231C2.69603 18.7724 3.85982 19 5.27153 19C12.1424 19 17.8836 13.6148 18.4699 6.68588L21.3779 3.72709C21.4866 3.61632 21.5607 3.47521 21.5906 3.32161C21.6205 3.16801 21.605 3.00883 21.5461 2.86419ZM17.1709 5.7745C17.0376 5.91056 16.9574 6.09134 16.9454 6.28313C16.5497 12.5263 11.424 17.4167 5.27153 17.4167C4.24483 17.4167 3.52147 17.2782 3.01395 17.1119C4.13302 16.4934 5.69349 15.4297 6.69685 13.8978C6.75574 13.8077 6.79587 13.7063 6.81475 13.5999C6.83363 13.4934 6.83087 13.3841 6.80663 13.2788C6.7824 13.1734 6.7372 13.0742 6.67384 12.9874C6.61048 12.9005 6.53029 12.8278 6.43823 12.7737C6.39254 12.747 2.16907 10.1672 2.16032 3.27387C3.71592 4.5603 6.55977 6.55625 9.80904 7.11239C9.9204 7.1315 10.0345 7.12569 10.1434 7.09539C10.2524 7.06508 10.3535 7.01099 10.4399 6.93687C10.5262 6.86276 10.5956 6.77041 10.6433 6.66623C10.691 6.56205 10.7159 6.44854 10.7162 6.3336V4.7503C10.7153 4.328 10.7974 3.90979 10.9577 3.52028C11.118 3.13077 11.3532 2.77783 11.6495 2.48222C11.9336 2.19257 12.2718 1.96382 12.6442 1.80949C13.0166 1.65516 13.4156 1.57839 13.8176 1.5837C15.0485 1.59953 16.1987 2.36347 16.68 3.48465C16.7406 3.62561 16.8403 3.74551 16.9669 3.8297C17.0935 3.91388 17.2414 3.95869 17.3926 3.95865H18.9482L17.1709 5.7745Z" fill="black" fill-opacity="0.3"/>
</svg>
